<svg id="レイヤー_1" data-name="レイヤー 1" xmlns="http://www.w3.org/2000/svg" viewBox="0 0 409.47 408.52"><defs><style>.cls-1{fill:#e6b438;}</style></defs><title>アートボード 2 のコピー 3</title><path class="cls-1" d="M113.27.65c2.38,0,90.73.28,99.29.26S233,7,237.79,16.06s3.59,18.73-5.16,27.11C222.67,52.7,215.1,68.4,218.94,85s19.55,24.67,40.94,24.62S293.05,98.8,296,90.55c7.56-21.41-.57-38-10.57-47.51-8.8-8.34-10-18-5.3-27.08S296.69.71,305.25.69,402.16,0,404.53,0c2.85,0,4.28,1.41,4.29,3.79s-.28,90.73-.26,99.29-6.13,20.45-15.15,25.23-18.73,3.59-27.11-5.16c-9.53-10-25.24-17.53-41.86-13.69S299.76,129,299.82,150.4s10.86,33.17,19.1,36.08c21.41,7.55,38-.56,47.51-10.57,8.34-8.8,18-10,27.08-5.3s15.25,16.6,15.27,25.16.68,96.91.69,99.29-1.42,3.8-4.27,3.81c-2.37,0-90.73.67-99.28.68s-20.43,6.24-25.16,15.27-3.5,18.75,5.29,27.09c10,9.48,18.13,26.1,10.58,47.51-2.91,8.24-14.69,19.05-36.08,19.1s-37.1-8-40.94-24.62,3.72-32.33,13.68-41.86c8.76-8.39,9.94-18.09,5.17-27.11s-16.68-15.17-25.24-15.15-96.91-.27-99.28-.26c-2.85,0-4.28-1.42-4.29-3.8S109,205,109,196.44,102.73,176,93.69,171.28s-18.74-3.5-27.08,5.3c-9.49,10-26.1,18.12-47.51,10.57-8.24-2.91-19-14.69-19.1-36.08S8,114,24.62,110.13,57,113.85,66.48,123.81c8.38,8.75,18.09,9.94,27.11,5.16s15.17-16.67,15.15-25.22S109,6.84,109,4.46h0C109,2.08,110.42.65,113.27.65Z"/></svg>