<svg id="レイヤー_1" data-name="レイヤー 1" xmlns="http://www.w3.org/2000/svg" viewBox="0 0 375.1 474.08"><defs><style>.cls-1{fill:#486fae;}</style></defs><title>アートボード 2</title><path class="cls-1" d="M275.25,370.14c0-2.18.25-83.12.24-90.95s5.61-18.74,13.88-23.11,17.15-3.29,24.83,4.72c8.73,9.13,23.12,16.06,38.35,12.54s22.6-17.91,22.55-37.5-10-30.39-17.5-33.06c-19.61-6.91-34.83.52-43.52,9.69-7.64,8.06-16.52,9.18-24.81,4.85s-14-15.2-14-23-.62-88.77-.63-91-1.32-3.47-3.93-3.47c-2.17,0-83.11-.26-91-.24S161,94,156.66,85.73s-3.29-17.15,4.73-24.83c9.12-8.73,16.05-23.12,12.54-38.35S156,0,136.42,0s-30.39,10-33,17.5c-6.92,19.61.52,34.83,9.69,43.52,8.06,7.63,9.18,16.53,4.85,24.81s-15.21,14-23,14-88.77.62-90.95.62c-2.61,0-3.91,1.32-3.91,3.5s.61,83.11.63,90.95,5.71,18.71,14,23.05,17.17,3.2,24.8-4.86c8.69-9.17,23.91-16.61,43.52-9.68,7.55,2.66,17.45,13.45,17.5,33s-7.32,34-22.55,37.5-29.62-3.41-38.35-12.53c-7.68-8-16.57-9.11-24.83-4.74S.82,272,.84,279.8.59,368.57.6,370.75s1.31,3.48,3.92,3.47c2.18,0,83.12.27,91,.24s18.73,5.62,23.11,13.89,3.29,17.15-4.73,24.82c-9.12,8.74-16.06,23.12-12.54,38.35s17.91,22.6,37.51,22.56,30.38-9.95,33-17.5c6.93-19.61-.52-34.83-9.68-43.52-8.05-7.64-9.19-16.52-4.85-24.81s15.21-14,23-14,88.77-.63,90.94-.63c2.61,0,3.92-1.31,3.92-3.49Z"/></svg>