<svg id="レイヤー_1" data-name="レイヤー 1" xmlns="http://www.w3.org/2000/svg" viewBox="0 0 433.99 303.42"><defs><style>.cls-1{fill:#bf3b68;}</style></defs><title>アートボード 2 のコピー 2</title><path class="cls-1" d="M354.82,14.43a497.08,497.08,0,0,0-8,51.94c-2.51,26.81,8.42,47.21,20.94,48.6,7.55.83,16.76,0,20.95-7.54s18.44-13.41,29.32-5.87S434,120,434,143.45s-8.37,36-16.75,41.06-20.11,6.69-33.51-1.68S350.22,182,349.37,208c-.77,23.68,5.82,68.46,6.71,72.88.84,4.2.84,8-3.35,11.31s-22.45,8.38-49.26,10.89-47.2-8.42-48.59-20.94c-.84-7.54,0-16.75,7.54-20.94s13.4-18.44,5.86-29.33-18.43-15.91-41.89-15.91-36,8.38-41,16.75-6.71,20.11,1.67,33.51.85,33.51-25.13,34.35c-23.68.77-76.42-5.45-82.7-10.05,0,0-2.94-.84-1.26-7.13,1.16-4.35,7.47-49.2,6.7-72.88-.83-26-20.94-33.52-34.35-25.14S25.14,192.05,16.76,187,0,169.43,0,146s5-34.35,15.92-41.88,25.14-1.68,29.33,5.86,13.4,8.38,20.94,7.54c12.52-1.39,23.46-21.78,21-48.59s-9.22-54.46-9.22-54.46c-1.25-2.93.36-4.67,1.85-4.85,0,0,27.65-6.7,54.46-9.22s47.21,8.43,48.59,21c.84,7.54,0,16.76-7.53,21s-13.41,18.43-5.87,29.32S187.86,87.5,211.31,87.5s36-8.38,41.05-16.76,6.71-20.1-1.67-33.51-.84-33.52,25.13-34.35c23.69-.77,68.42,6.18,72.9,6.7C354.4,10.24,355.66,11.92,354.82,14.43Z"/></svg>