<svg id="レイヤー_1" data-name="レイヤー 1" xmlns="http://www.w3.org/2000/svg" viewBox="0 0 470.33 385.29"><defs><style>.cls-1{fill:#abc643;}</style></defs><title>アートボード 2 のコピー 4</title><path class="cls-1" d="M96.47,102.15a292.66,292.66,0,0,1,3.56,45.4c0,43.27-7.1,51.08-27.68,49.66-18.42-1.27-20.56-12.77-42.56-11.34S0,207.84,0,232s7.8,44.7,29.79,46.13S53.91,266,72.35,266.73,100,277.38,100,316.39c0,29.93-6.32,49.61-6.4,54.63-.09,7.05,4,7,8.52,7.88a230.75,230.75,0,0,0,54.63,6.39c39,0,48.95-9.22,49.66-27.67s-12.77-20.57-11.36-42.56,22-29.8,46.11-29.8,44.7,7.8,46.12,29.8S277.23,339.21,276,357.62c-1.43,20.58,6.38,27.67,49.65,27.67,23.43,0,40.49-2.55,45.4-3.54,4.63-.94,3.26-5.25,2.84-7.89a274.28,274.28,0,0,1-3.55-45.4c0-43.28,7.1-51.08,27.67-49.67,18.42,1.28,20.58,12.77,42.57,11.36s29.79-22,29.79-46.12-7.8-44.69-29.79-46.1S416.41,210,398,209.28s-27.67-10.65-27.67-49.66c0-29.93,5.68-49.66,6.39-54.63,1.43-4.25-.71-9.22-5.68-8.51a295,295,0,0,1-45.4,3.54c-43.27,0-51.08-7.09-49.65-27.66,1.27-18.42,12.76-20.57,11.35-42.56S265.32,0,241.19,0,196.5,7.8,195.08,29.8s12.06,24.11,11.36,42.56S195.79,100,156.78,100c-29.93,0-49.66-5.67-54.63-6.38S95.05,97.9,96.47,102.15Z"/></svg>