<svg id="レイヤー_1" data-name="レイヤー 1" xmlns="http://www.w3.org/2000/svg" viewBox="0 0 409.47 408.52"><defs><style>.cls-1{fill:#8054a0;}</style></defs><title>アートボード 2 のコピー</title><path class="cls-1" d="M296.2,407.87c-2.38,0-90.73-.29-99.29-.27s-20.45-6.12-25.23-15.14-3.59-18.73,5.17-27.11c10-9.53,17.52-25.24,13.68-41.86S171,298.82,149.59,298.87s-33.17,10.85-36.08,19.1c-7.56,21.41.57,38,10.57,47.51,8.8,8.34,10,18,5.3,27.08s-16.6,15.25-25.16,15.27-96.91.68-99.28.69c-2.85,0-4.28-1.42-4.29-3.79S.93,314,.91,305.44,7,285,16.06,280.21s18.73-3.59,27.11,5.16c9.53,10,25.24,17.53,41.87,13.69s24.67-19.55,24.61-40.94S98.79,225,90.55,222c-21.41-7.54-38,.57-47.51,10.58-8.34,8.8-18,10-27.08,5.3S.71,221.31.69,212.75,0,115.84,0,113.46s1.42-3.8,4.27-3.81c2.38,0,90.73-.67,99.28-.68S124,102.73,128.71,93.7s3.5-18.75-5.29-27.09c-10-9.48-18.13-26.1-10.58-47.51,2.91-8.24,14.69-19,36.08-19.1S186,8,189.86,24.62,186.14,57,176.18,66.48c-8.76,8.39-9.94,18.09-5.16,27.11s16.67,15.17,25.23,15.15,96.91.27,99.28.26c2.85,0,4.28,1.42,4.29,3.8s.67,90.73.69,99.28,6.23,20.43,15.27,25.16,18.74,3.5,27.08-5.3c9.49-10,26.1-18.12,47.51-10.57,8.24,2.91,19.05,14.69,19.1,36.08s-8,37.09-24.62,40.94-32.33-3.73-41.86-13.68c-8.38-8.75-18.09-9.94-27.11-5.16s-15.17,16.67-15.15,25.22-.27,96.91-.26,99.29h0C300.47,406.44,299.05,407.86,296.2,407.87Z"/></svg>